#N canvas 557 38 711 648 12;
#X obj 92 192 Panner5, f 19;
#X obj 92 96 hsl 128 15 0 127 0 0 empty empty empty -2 -8 0 10 -262144
-1 -1 0 1;
#X obj 45 393 vu 15 120 empty empty -1 -8 0 10 -66577 -1 1 0;
#X obj 44 327 env~ 128;
#X obj 44 363 - 100;
#X obj 44 295 *~;
#X obj 425 255 osc~ 200;
#X obj 148 399 vu 15 120 empty empty -1 -8 0 10 -66577 -1 1 0;
#X obj 147 333 env~ 128;
#X obj 147 369 - 100;
#X obj 147 301 *~;
#X obj 475 125 tgl 15 0 empty empty empty 17 7 0 10 -262144 -1 -1 1
1;
#X msg 479 190 \; pd dsp \$1;
#X obj 228 396 vu 15 120 empty empty -1 -8 0 10 -66577 -1 1 0;
#X obj 227 330 env~ 128;
#X obj 227 366 - 100;
#X obj 227 298 *~;
#X floatatom 88 67 5 0 0 0 - - -;
#X floatatom 98 118 5 0 0 0 - - -;
#X obj 310 399 vu 15 120 empty empty -1 -8 0 10 -66577 -1 1 0;
#X obj 309 333 env~ 128;
#X obj 309 369 - 100;
#X obj 309 301 *~;
#X obj 393 404 vu 15 120 empty empty -1 -8 0 10 -66577 -1 1 0;
#X obj 392 338 env~ 128;
#X obj 392 374 - 100;
#X obj 392 306 *~;
#X obj 225 41 vsl 15 128 0 127 0 0 empty empty empty 0 -9 0 10 -262144
-1 -1 0 1;
#X floatatom 290 81 5 0 0 0 - - -;
#X floatatom 280 186 5 0 0 0 - - -;
#X connect 0 0 5 0;
#X connect 0 1 10 0;
#X connect 0 2 16 0;
#X connect 0 3 22 1;
#X connect 0 4 26 1;
#X connect 1 0 0 0;
#X connect 1 0 18 0;
#X connect 3 0 4 0;
#X connect 4 0 2 0;
#X connect 5 0 3 0;
#X connect 6 0 5 1;
#X connect 6 0 10 1;
#X connect 6 0 16 1;
#X connect 6 0 22 0;
#X connect 6 0 26 0;
#X connect 8 0 9 0;
#X connect 9 0 7 0;
#X connect 10 0 8 0;
#X connect 11 0 12 0;
#X connect 14 0 15 0;
#X connect 15 0 13 0;
#X connect 16 0 14 0;
#X connect 17 0 1 0;
#X connect 20 0 21 0;
#X connect 21 0 19 0;
#X connect 22 0 20 0;
#X connect 24 0 25 0;
#X connect 25 0 23 0;
#X connect 26 0 24 0;
#X connect 27 0 0 1;
#X connect 27 0 29 0;
#X connect 28 0 27 0;
